<?xml version="1.0" encoding="UTF-8" standalone="no"?><!DOCTYPE svg PUBLIC "-//W3C//DTD SVG 1.1//EN" "http://www.w3.org/Graphics/SVG/1.1/DTD/svg11.dtd"><svg width="100%" height="100%" viewBox="0 0 783 783" version="1.1" xmlns="http://www.w3.org/2000/svg" xmlns:xlink="http://www.w3.org/1999/xlink" xml:space="preserve" xmlns:serif="http://www.serif.com/" style="fill-rule:evenodd;clip-rule:evenodd;stroke-linejoin:round;stroke-miterlimit:2;"><path d="M783,195.75l0,391.5c0,108.037 -87.713,195.75 -195.75,195.75l-391.5,0c-108.037,0 -195.75,-87.713 -195.75,-195.75l0,-391.5c0,-108.037 87.713,-195.75 195.75,-195.75l391.5,0c108.037,0 195.75,87.713 195.75,195.75Z" style="fill:#161616;"/><path d="M627.443,149.531l-307.706,9.896c-39.35,1.714 -73.399,27.92 -85.137,65.523l-139.675,447.608c-5.96,19.104 12.474,36.796 31.314,30.062l192.103,-68.676l180.538,-5.2c39.74,-1.911 73.916,-28.776 85.154,-66.945l100.072,-339.857c10.947,-37.18 -17.939,-74.097 -56.663,-72.41Zm-412.523,422.439c-14.732,-14.506 -21.542,-36.373 -11.321,-72.954c8.613,-30.814 18.291,-62.2 29.298,-92.25c6.827,-19.664 27.129,-20.537 44.81,-20.614c20.702,-0.928 42.937,-1.928 63.869,-2.873c16.561,0.22 37.389,-5.701 41.432,9.997c4.751,14.935 -29.353,68.154 -1.758,67.143c8.585,-2.258 14.671,-11.886 17.621,-20.23c7.042,-25.426 19.104,-52 22.328,-78.26c-1.615,-15.792 -21.872,-11.914 -33.357,-11.82c-36.049,1.615 -26.887,0.099 -63.04,1.708c-6.646,0.011 -15.621,1.346 -20.01,-4.087c-3.559,-5.119 -1.829,-13.501 -0.066,-19.873c6.882,-22.8 14.946,-48.281 21.669,-70.142c6.284,-16.742 8.354,-43.003 28.842,-48.215c99.281,-7.657 151.012,-5.938 249.765,-11.211c19.082,-1.088 26.761,6.981 20.614,25.074c-14.506,47.161 -30.534,98.49 -44.974,145.156c-10.173,32.764 -19.757,63.754 -30.369,97.913c-8.387,25.234 -13.952,47.056 -33.736,66.176c-11.403,11.018 -24.569,22.284 -38.949,31.177c-14.693,9.09 -30.649,15.709 -47.298,17.093c-16.835,1.395 -34.412,0.423 -50.637,2.049l-1.417,0.066c-26.261,1.186 -52.631,2.356 -78.832,3.543c-16.973,0.763 -26.656,1.197 -39.108,1.758c-16.681,0.753 -33.484,-4.603 -45.381,-16.319l0.005,-0.005Z" style="fill:#fff;fill-rule:nonzero;"/></svg>