<svg width="500" height="500" viewBox="0 0 500 500" fill="none" xmlns="http://www.w3.org/2000/svg">
<path d="M158.174 201.493V263.592C158.174 266.108 156.054 268.147 153.438 268.147C152.182 268.147 151.042 267.674 150.195 266.906L78.0164 201.493H37.4883L182.865 333.329C183.257 333.683 183.781 333.902 184.362 333.902C185.571 333.902 186.548 332.961 186.548 331.8L186.548 201.493H158.174Z" fill="#00FFF6"/>
<path d="M466.244 292.501L333.927 201.883C333.569 201.638 333.131 201.493 332.66 201.493C331.452 201.493 330.474 202.433 330.474 203.595L330.474 274.039C330.474 276.555 328.354 278.594 325.738 278.594C324.715 278.594 323.769 278.28 322.994 277.747L212.218 201.883C211.234 201.211 209.871 201.43 209.172 202.376C208.896 202.747 208.766 203.174 208.766 203.595L208.766 306.579H237.139L237.181 261.355C237.181 258.839 239.301 256.8 241.917 256.8C242.94 256.8 243.886 257.114 244.661 257.647L355.44 333.511C356.425 334.183 357.788 333.964 358.486 333.018C358.762 332.647 358.893 332.22 358.893 331.8L358.893 261.355C358.893 258.839 361.013 256.8 363.629 256.8C364.651 256.8 365.598 257.114 366.372 257.647L417.272 292.501L466.251 292.501H466.244Z" fill="#00FFF6"/>
</svg>
