<svg xmlns="http://www.w3.org/2000/svg" viewBox="0 0 464.2 512"><g fill="#14b89f"><path fill-rule="evenodd" d="M387.4 89.6h-77.3l-78-45-78 45H76.8L232.1 0zm-366 96.5L60 253.2v89.4l77.2 44.5 38.5 66.9-154.3-89.1zm421.4 178.8V186.1l-38.6 67v89.4l-77.3 44.7-38.6 66.9 154.6-89.3Z" opacity=".5"/><path d="M162.9 109.4h301.2l-22.5 40c-2.7 5.1-5.9 7-11.8 7H244.7c0-.1 10.4 18 10.4 18 1.9 3.3 4 5.1 9.5 5.1H424c0 .1-110.4 191.4-110.4 191.4l-69.4-120.2 48.5-.5c4.5-.1 7.1 1.4 9.1 5.3l11.8 20.4 28.1-48.7H236.9c-4.4 0-7-1.1-9.3-5.1l-64.7-112.8Zm-26.9 0 160.6 278.2c2.8 4.8 2.9 8.2 0 13.1l-64.8 111.4L0 109.4h53.9L232 417.3l11.9-21c1.1-2.8-.3-5-1.5-7.1L80.9 109.4h55.2Z"/></g></svg>