<?xml version="1.0" encoding="UTF-8" standalone="no"?>
<!DOCTYPE svg PUBLIC "-//W3C//DTD SVG 1.1//EN" "http://www.w3.org/Graphics/SVG/1.1/DTD/svg11.dtd">
<svg width="100%" height="100%" viewBox="0 0 2000 2000" version="1.1" xmlns="http://www.w3.org/2000/svg" xmlns:xlink="http://www.w3.org/1999/xlink" xml:space="preserve" xmlns:serif="http://www.serif.com/" style="fill-rule:evenodd;clip-rule:evenodd;stroke-linejoin:round;stroke-miterlimit:2;">
    <rect x="0" y="0" width="2000" height="2000" style="fill:white;"/>
    <g transform="matrix(0.801051,0,0,0.801051,198.949185,198.949185)">
        <g transform="matrix(0.96012,0.279587,-0.279587,0.96012,276.455226,-147.012372)">
            <path d="M571.956,268.143C420.337,286.13 449.774,753.998 468.635,961.87C486.536,1159.171 553.506,1410.824 685.117,1515.375C816.728,1619.926 1104.961,1630.996 1258.303,1589.176C1411.102,1547.503 1555.146,1398.934 1605.166,1264.453C1655.187,1129.971 1639.196,922.099 1558.426,782.288C1477.655,642.476 1284.953,511.275 1120.541,425.584C956.13,339.893 722.778,250.25 571.956,268.143Z" style="fill:url(#_Linear1);"/>
        </g>
        <g transform="matrix(0.796673,0,0,0.796673,287.033217,312.699337)">
            <path d="M1310.269,1106.704C1266.154,1128.641 1262.1,1279.183 1214.329,1337.946C1120.394,1453.496 1062.826,1393.091 1111.007,1515.068C1175.851,1679.227 1317.02,1515.728 1369.31,1460.948C1429.581,1397.807 1610.392,957.463 1310.269,1106.704Z" style="fill:white;"/>
        </g>
        <g transform="matrix(-0.601884,0.521941,-0.521941,-0.601884,2153.135185,1129.962657)">
            <path d="M1310.269,1106.704C1266.154,1128.641 1262.1,1279.183 1214.329,1337.946C1120.394,1453.496 1062.826,1393.091 1111.007,1515.068C1175.851,1679.227 1317.02,1515.728 1369.31,1460.948C1429.581,1397.807 1610.392,957.463 1310.269,1106.704Z" style="fill:white;"/>
        </g>
        <g transform="matrix(-0.601884,0.521941,-0.521941,-0.601884,2475.522919,1066.911333)">
            <path d="M1310.269,1106.704C1266.154,1128.641 1262.1,1279.183 1214.329,1337.946C1120.394,1453.496 1062.826,1393.091 1111.007,1515.068C1175.851,1679.227 1317.02,1515.728 1369.31,1460.948C1429.581,1397.807 1610.392,957.463 1310.269,1106.704Z" style="fill:white;"/>
        </g>
        <g transform="matrix(0.96012,0.279587,-0.279587,0.96012,276.455226,-147.012372)">
            <path d="M541.317,9.879C732.51,-12.803 1032.325,86.326 1240.745,194.954C1447.364,302.644 1682.116,476.485 1783.622,652.189C1901.33,855.938 1921.821,1159.138 1848.925,1355.119C1773.901,1556.825 1555.914,1777.583 1326.733,1840.087C1205.824,1873.062 1021.168,1883.447 855.374,1854.855C724.203,1832.235 605.45,1784.238 523.346,1719.015C346.655,1578.653 233.656,1250.251 209.624,985.37C194.329,816.798 179.209,500.779 228.054,319.106C280.913,122.501 408.256,25.664 541.317,9.879ZM571.956,268.143C420.337,286.13 449.774,753.998 468.635,961.87C486.536,1159.171 553.506,1410.824 685.117,1515.375C816.728,1619.926 1104.961,1630.996 1258.303,1589.176C1411.102,1547.503 1555.146,1398.934 1605.166,1264.453C1655.187,1129.971 1639.196,922.099 1558.426,782.288C1477.655,642.476 1284.953,511.275 1120.541,425.584C956.13,339.893 722.778,250.25 571.956,268.143Z"/>
        </g>
    </g>
    <defs>
        <linearGradient id="_Linear1" x1="0" y1="0" x2="1" y2="0" gradientUnits="userSpaceOnUse" gradientTransform="matrix(1180.60116,0,0,1346.069005,453.059943,938.875588)"><stop offset="0" style="stop-color:rgb(23,189,255);stop-opacity:1"/><stop offset="0.52" style="stop-color:rgb(23,174,255);stop-opacity:1"/><stop offset="1" style="stop-color:rgb(23,169,255);stop-opacity:1"/></linearGradient>
    </defs>
</svg>
