<?xml version="1.0" encoding="UTF-8" standalone="no"?>
<!DOCTYPE svg PUBLIC "-//W3C//DTD SVG 1.1//EN" "http://www.w3.org/Graphics/SVG/1.1/DTD/svg11.dtd">
<svg width="100%" height="100%" viewBox="0 0 2000 2000" version="1.1" xmlns="http://www.w3.org/2000/svg" xmlns:xlink="http://www.w3.org/1999/xlink" xml:space="preserve" xmlns:serif="http://www.serif.com/" style="fill-rule:evenodd;clip-rule:evenodd;stroke-linejoin:round;stroke-miterlimit:2;">
    <rect x="0" y="0" width="2000" height="2000" style="fill:white;"/>
    <g transform="matrix(0.96012,0.279587,-0.279587,0.96012,276.455226,-147.012372)">
        <path d="M571.956,268.143C420.337,286.13 449.774,753.998 468.635,961.87C486.536,1159.171 553.506,1410.824 685.117,1515.375C816.728,1619.926 1104.961,1630.996 1258.303,1589.176C1411.102,1547.503 1555.146,1398.934 1605.166,1264.453C1655.187,1129.971 1639.196,922.099 1558.426,782.288C1477.655,642.476 1284.953,511.275 1120.541,425.584C956.13,339.893 722.778,250.25 571.956,268.143Z" style="fill:url(#_Linear1);"/>
    </g>
    <g transform="matrix(0.796673,0,0,0.796673,287.033217,312.699337)">
        <path d="M1310.269,1106.704C1266.154,1128.641 1262.1,1279.183 1214.329,1337.946C1120.394,1453.496 1062.826,1393.091 1111.007,1515.068C1175.851,1679.227 1317.02,1515.728 1369.31,1460.948C1429.581,1397.807 1610.392,957.463 1310.269,1106.704Z" style="fill:white;"/>
    </g>
    <g transform="matrix(-0.601884,0.521941,-0.521941,-0.601884,2153.135185,1129.962657)">
        <path d="M1310.269,1106.704C1266.154,1128.641 1262.1,1279.183 1214.329,1337.946C1120.394,1453.496 1062.826,1393.091 1111.007,1515.068C1175.851,1679.227 1317.02,1515.728 1369.31,1460.948C1429.581,1397.807 1610.392,957.463 1310.269,1106.704Z" style="fill:white;"/>
    </g>
    <g transform="matrix(-0.601884,0.521941,-0.521941,-0.601884,2475.522919,1066.911333)">
        <path d="M1310.269,1106.704C1266.154,1128.641 1262.1,1279.183 1214.329,1337.946C1120.394,1453.496 1062.826,1393.091 1111.007,1515.068C1175.851,1679.227 1317.02,1515.728 1369.31,1460.948C1429.581,1397.807 1610.392,957.463 1310.269,1106.704Z" style="fill:white;"/>
    </g>
    <g transform="matrix(0.96012,0.279587,-0.279587,0.96012,276.455226,-147.012372)">
        <path d="M547.412,61.26C730.568,39.532 1017.172,136.776 1216.83,240.838C1415.049,344.149 1641.44,509.512 1738.819,678.072C1849.179,869.1 1868.774,1153.336 1800.43,1337.081C1730.379,1525.413 1527.104,1731.809 1313.119,1790.168C1197.96,1821.575 1022.076,1831.098 864.167,1803.866C742.362,1782.861 631.771,1739.067 555.531,1678.501C387.818,1545.272 283.965,1232.115 261.154,980.694C246.275,816.711 230.506,509.267 278.021,332.54C323.932,161.779 431.843,74.971 547.412,61.26ZM571.956,268.143C420.337,286.13 449.774,753.998 468.635,961.87C486.536,1159.171 553.506,1410.824 685.117,1515.375C816.728,1619.926 1104.961,1630.996 1258.303,1589.176C1411.102,1547.503 1555.146,1398.934 1605.166,1264.453C1655.187,1129.971 1639.196,922.099 1558.426,782.288C1477.655,642.476 1284.953,511.275 1120.541,425.584C956.13,339.893 722.778,250.25 571.956,268.143Z"/>
    </g>
    <defs>
        <linearGradient id="_Linear1" x1="0" y1="0" x2="1" y2="0" gradientUnits="userSpaceOnUse" gradientTransform="matrix(1180.60116,0,0,1346.069005,453.059943,938.875588)"><stop offset="0" style="stop-color:rgb(23,189,255);stop-opacity:1"/><stop offset="0.52" style="stop-color:rgb(23,174,255);stop-opacity:1"/><stop offset="1" style="stop-color:rgb(23,169,255);stop-opacity:1"/></linearGradient>
    </defs>
</svg>
