<?xml version="1.0" encoding="UTF-8" standalone="no"?><!DOCTYPE svg PUBLIC "-//W3C//DTD SVG 1.1//EN" "http://www.w3.org/Graphics/SVG/1.1/DTD/svg11.dtd"><svg width="100%" height="100%" viewBox="0 0 2000 2000" version="1.1" xmlns="http://www.w3.org/2000/svg" xmlns:xlink="http://www.w3.org/1999/xlink" xml:space="preserve" xmlns:serif="http://www.serif.com/" style="fill-rule:evenodd;clip-rule:evenodd;stroke-linejoin:round;stroke-miterlimit:2;"><path d="M750.632,270.348c-150.602,-25.121 -253.148,432.319 -293.158,637.174c-37.976,194.438 -44.036,454.779 53.096,591.958c97.132,137.178 370.775,228.393 529.693,231.113c158.357,2.71 338.194,-99.662 423.819,-214.795c85.625,-115.133 128.391,-319.186 89.931,-476.004c-38.46,-156.818 -186.795,-336.664 -320.692,-464.905c-133.897,-128.241 -332.879,-279.552 -482.689,-304.54Z" style="fill:url(#_Linear1);"/><path d="M1330.889,1194.38c-35.146,17.477 -38.376,137.409 -76.434,184.224c-74.835,92.055 -120.698,43.932 -82.313,141.108c51.659,130.781 164.124,0.526 205.783,-43.116c48.016,-50.302 192.064,-401.113 -47.036,-282.216Z" style="fill:#fff;"/><path d="M786.87,1147.738c15.102,-36.229 -61.031,-128.954 -62.95,-189.257c-3.772,-118.576 62.405,-112.266 -30.26,-160.534c-124.71,-64.96 -124.34,107.129 -127.221,167.393c-3.32,69.461 117.686,428.871 220.43,182.398Z" style="fill:#fff;"/><path d="M1109.258,1084.687c15.102,-36.229 -61.031,-128.954 -62.95,-189.257c-3.772,-118.576 62.405,-112.266 -30.26,-160.534c-124.71,-64.96 -124.34,107.129 -127.221,167.393c-3.32,69.461 117.686,428.871 220.43,182.398Z" style="fill:#fff;"/><path d="M784.909,64.854c181.927,30.346 429.912,203.844 592.514,359.577c161.429,154.61 332.558,376.675 378.927,565.739c52.549,214.265 -8.106,492.644 -125.097,649.953c-119.912,161.236 -372.786,302.568 -594.555,298.772c-119.347,-2.042 -290.88,-42.075 -434.877,-112.37c-111.074,-54.223 -205.011,-127.19 -261.278,-206.656c-123.775,-174.806 -135.932,-504.511 -87.539,-752.283c31.563,-161.603 102.38,-461.195 197.411,-617.59c91.823,-151.115 219.701,-204.291 334.495,-185.143Zm-34.277,205.494c-150.602,-25.121 -253.148,432.319 -293.158,637.174c-37.976,194.438 -44.036,454.779 53.096,591.958c97.132,137.178 370.775,228.393 529.693,231.113c158.357,2.71 338.194,-99.662 423.819,-214.795c85.625,-115.133 128.391,-319.186 89.931,-476.004c-38.46,-156.818 -186.795,-336.664 -320.692,-464.905c-133.897,-128.241 -332.879,-279.552 -482.689,-304.54Z"/><defs><linearGradient id="_Linear1" x1="0" y1="0" x2="1" y2="0" gradientUnits="userSpaceOnUse" gradientTransform="matrix(1133.519084,330.081181,-376.343901,1292.388113,448.949491,881.090935)"><stop offset="0" style="stop-color:#17bdff;stop-opacity:1"/><stop offset="0.52" style="stop-color:#17aeff;stop-opacity:1"/><stop offset="1" style="stop-color:#17a9ff;stop-opacity:1"/></linearGradient></defs></svg>